<svg width="55" height="401" viewBox="0 0 55 401" fill="none" xmlns="http://www.w3.org/2000/svg">
<path d="M6.75306 345.469C31.6582 393.257 79.4805 402.913 133.313 400.458C231.539 395.979 330.434 357.706 401.179 301.211C471.923 244.716 500.168 168.218 506.781 104.05C516.805 6.78334 507.95 -12.2367 464.795 -77.5582C433.297 -125.235 411.815 -148.369 350.063 -189.357C288.312 -230.346 182.283 -290.302 116.108 -223.22C63.7236 -170.118 115.794 -35.6721 115.794 -35.6721C115.794 -35.6721 141.782 26.0201 134.395 76.0387C126.749 127.807 66.6828 191.672 66.6828 191.672C66.6828 191.672 -23.0379 288.306 6.75306 345.469Z" fill="#8ed2f2"/>
</svg>
